<svg width="25" height="26" viewBox="0 0 25 26" fill="none" xmlns="http://www.w3.org/2000/svg">
<g clip-path="url(#clip0_2_15138)">
<path d="M21 13.1461C21 8.1501 16.97 4.1001 12 4.1001C7.03001 4.1001 3.00001 8.1501 3.00001 13.1461C2.99693 15.2933 3.75939 17.3712 5.15048 19.0068C6.54158 20.6424 8.47019 21.7285 10.59 22.0701V15.6941H8.39501V13.1401H10.588V11.2601C10.588 9.0741 11.916 7.8851 13.855 7.8851C14.785 7.8851 15.583 7.9551 15.815 7.9851V10.2701H14.47C13.415 10.2701 13.21 10.7731 13.21 11.5121V13.1421H15.727L15.397 15.6961H13.21V22.1001C17.608 21.5031 21 17.7271 21 13.1461Z" fill="white"/>
<g clip-path="url(#clip1_2_15138)">
<path d="M-222 7.63608C-222 16.0771 -215.394 23.0151 -206.964 23.4451C-146.646 26.5211 -106.079 48.4761 -68.716 86.0271C-32 122.891 -8.645 175.786 -4.634 223.796C-3.948 231.998 2.905 238.32 11.136 238.32H67.837C72.181 238.32 76.335 236.536 79.325 233.385C82.317 230.235 83.88 225.994 83.658 221.656C75.584 63.5041 -47.011 -56.6759 -205.355 -64.5739C-209.689 -64.7909 -213.919 -63.2189 -217.064 -60.2299C-220.208 -57.2409 -222 -53.0919 -222 -48.7529V7.63608Z" fill="black"/>
<path d="M-222 -148.589C-222 -140.079 -215.287 -133.107 -206.784 -132.77C-12.574 -125.087 143.531 29.0281 151.314 223.109C151.654 231.6 158.634 238.317 167.132 238.317H223.589C227.886 238.317 231.997 236.573 234.982 233.483C237.967 230.393 239.567 226.225 239.423 221.931C231.181 -22.5879 39.024 -212.73 -205.62 -220.879C-209.911 -221.022 -214.075 -219.417 -217.162 -216.432C-220.249 -213.449 -222 -209.339 -222 -205.046V-148.589Z" fill="black"/>
</g>
</g>
<defs>
<clipPath id="clip0_2_15138">
<rect width="25" height="25" fill="white" transform="translate(0 0.5)"/>
</clipPath>
<clipPath id="clip1_2_15138">
<rect width="461.432" height="461.432" fill="white" transform="translate(-222 -222)"/>
</clipPath>
</defs>
</svg>
